<?xml version="1.0" encoding="UTF-8" standalone="no"?>
<svg
   xmlns:dc="http://purl.org/dc/elements/1.1/"
   xmlns:cc="http://creativecommons.org/ns#"
   xmlns:rdf="http://www.w3.org/1999/02/22-rdf-syntax-ns#"
   xmlns:svg="http://www.w3.org/2000/svg"
   xmlns="http://www.w3.org/2000/svg"
   xmlns:xlink="http://www.w3.org/1999/xlink"
   xmlns:sodipodi="http://sodipodi.sourceforge.net/DTD/sodipodi-0.dtd"
   xmlns:inkscape="http://www.inkscape.org/namespaces/inkscape"
   inkscape:version="1.0 (4035a4fb49, 2020-05-01)"
   sodipodi:docname="ballon1.svg"
   version="1.1"
   viewBox="0 0 839.2 727.08"
   height="727.08"
   width="839.2"
   data-name="Layer 1"
   id="683d3690-e1ab-45db-97b8-9484a1649262">
  <metadata
     id="metadata19">
    <rdf:RDF>
      <cc:Work
         rdf:about="">
        <dc:format>image/svg+xml</dc:format>
        <dc:type
           rdf:resource="http://purl.org/dc/dcmitype/StillImage" />
      </cc:Work>
    </rdf:RDF>
  </metadata>
  <defs
     id="defs17">
    <linearGradient
       inkscape:collect="always"
       id="linearGradient3930">
      <stop
         style="stop-color:#800000;stop-opacity:1;"
         offset="0"
         id="stop3932" />
      <stop
         style="stop-color:#800000;stop-opacity:0;"
         offset="1"
         id="stop3934" />
    </linearGradient>
    <linearGradient
       inkscape:collect="always"
       id="linearGradient3076">
      <stop
         style="stop-color:#ffffff;stop-opacity:1;"
         offset="0"
         id="stop3078" />
      <stop
         style="stop-color:#ffffff;stop-opacity:0;"
         offset="1"
         id="stop3080" />
    </linearGradient>
    <linearGradient
       id="linearGradient3033">
      <stop
         id="stop3035"
         offset="0"
         style="stop-color:#800000;stop-opacity:1;" />
      <stop
         style="stop-color:#ff0000;stop-opacity:1"
         offset="0.35205141"
         id="stop3037" />
      <stop
         id="stop3040"
         offset="0.46797922"
         style="stop-color:#ff2a2a;stop-opacity:1" />
      <stop
         id="stop3042"
         offset="1"
         style="stop-color:#ff5555;stop-opacity:1" />
    </linearGradient>
    <linearGradient
       id="linearGradient3037">
      <stop
         style="stop-color:#800000;stop-opacity:1;"
         offset="0"
         id="stop3039" />
      <stop
         id="stop3045"
         offset="0.35205141"
         style="stop-color:#ff0000;stop-opacity:1" />
      <stop
         style="stop-color:#ff5555;stop-opacity:1"
         offset="0.46797922"
         id="stop3047" />
      <stop
         style="stop-color:#ffaaaa;stop-opacity:1"
         offset="1"
         id="stop3041" />
    </linearGradient>
    <linearGradient
       inkscape:collect="always"
       xlink:href="#linearGradient3033"
       id="linearGradient3008"
       x1="147.98734"
       y1="584.15649"
       x2="145.46196"
       y2="435.81619"
       gradientUnits="userSpaceOnUse"
       gradientTransform="matrix(0.14914445,0,0,0.14914445,-8.1161469,-64.490002)" />
    <linearGradient
       inkscape:collect="always"
       xlink:href="#linearGradient3037"
       id="linearGradient3016"
       x1="187.68785"
       y1="551.68976"
       x2="85.272011"
       y2="451.17957"
       gradientUnits="userSpaceOnUse"
       gradientTransform="matrix(2.2585774,0,0,2.2585774,-129.98033,-931.93222)" />
    <linearGradient
       inkscape:collect="always"
       xlink:href="#linearGradient3037"
       id="linearGradient3022"
       gradientUnits="userSpaceOnUse"
       x1="145.46196"
       y1="579.10571"
       x2="145.46196"
       y2="435.81619" />
    <linearGradient
       inkscape:collect="always"
       xlink:href="#linearGradient3076"
       id="linearGradient3031"
       x1="162.63457"
       y1="451.88361"
       x2="162.63457"
       y2="527.73151"
       gradientUnits="userSpaceOnUse"
       gradientTransform="matrix(0.14914444,0,0,0.14914444,-8.1161464,-64.49)" />
    <linearGradient
       inkscape:collect="always"
       xlink:href="#linearGradient3037"
       id="linearGradient3049"
       gradientUnits="userSpaceOnUse"
       gradientTransform="matrix(0.26355425,0,0,0.26355425,-16.068095,-115.47945)"
       x1="222.10353"
       y1="598.90796"
       x2="144.0524"
       y2="448.27444" />
    <linearGradient
       inkscape:collect="always"
       xlink:href="#linearGradient3037"
       id="linearGradient3051"
       gradientUnits="userSpaceOnUse"
       gradientTransform="matrix(0.72455273,0,0,0.72455273,-42.609366,-315.91413)"
       x1="187.68785"
       y1="551.68976"
       x2="85.272011"
       y2="451.17957" />
    <linearGradient
       inkscape:collect="always"
       xlink:href="#linearGradient3037"
       id="linearGradient3057"
       gradientUnits="userSpaceOnUse"
       gradientTransform="matrix(0.72455273,0,0,0.72455273,-44.609366,-313.91413)"
       x1="138.54187"
       y1="601.2785"
       x2="247.76367"
       y2="359.97171" />
    <linearGradient
       inkscape:collect="always"
       xlink:href="#linearGradient3037"
       id="linearGradient3059"
       gradientUnits="userSpaceOnUse"
       gradientTransform="matrix(0.72455273,0,0,0.72455273,-42.609366,-315.91413)"
       x1="138.54187"
       y1="601.2785"
       x2="247.76367"
       y2="359.97171" />
    <linearGradient
       inkscape:collect="always"
       xlink:href="#linearGradient3037"
       id="linearGradient3069"
       gradientUnits="userSpaceOnUse"
       gradientTransform="matrix(0.72455273,0,0,0.72455273,-42.609366,-309.91413)"
       x1="138.54187"
       y1="601.2785"
       x2="247.76367"
       y2="359.97171" />
    <linearGradient
       inkscape:collect="always"
       xlink:href="#linearGradient3076"
       id="linearGradient3082"
       x1="42"
       y1="-2.3878183"
       x2="40.25"
       y2="83.862183"
       gradientUnits="userSpaceOnUse"
       gradientTransform="matrix(0.20584347,0,0,0.20584347,0.65471309,0.53885897)" />
    <linearGradient
       inkscape:collect="always"
       xlink:href="#linearGradient3037"
       id="linearGradient3084"
       gradientUnits="userSpaceOnUse"
       gradientTransform="matrix(0.14914444,0,0,0.14914444,-8.1161464,-64.49)"
       x1="187.68785"
       y1="551.68976"
       x2="85.272011"
       y2="451.17957" />
    <linearGradient
       inkscape:collect="always"
       xlink:href="#linearGradient3037"
       id="linearGradient3096"
       gradientUnits="userSpaceOnUse"
       gradientTransform="matrix(0.14914444,0,0,0.14914444,-8.1161464,-64.49)"
       x1="222.10353"
       y1="598.90796"
       x2="144.0524"
       y2="448.27444" />
    <filter
       inkscape:collect="always"
       id="filter3881"
       color-interpolation-filters="sRGB">
      <feGaussianBlur
         inkscape:collect="always"
         stdDeviation="0.4609375"
         id="feGaussianBlur3883" />
    </filter>
    <linearGradient
       inkscape:collect="always"
       xlink:href="#linearGradient3076"
       id="linearGradient3885"
       gradientUnits="userSpaceOnUse"
       gradientTransform="matrix(0.36374753,0,0,0.36374753,-0.56904339,-0.56647002)"
       x1="42"
       y1="-2.3878183"
       x2="40.25"
       y2="83.862183" />
    <linearGradient
       inkscape:collect="always"
       xlink:href="#linearGradient3076"
       id="linearGradient3887"
       gradientUnits="userSpaceOnUse"
       gradientTransform="matrix(0.26355425,0,0,0.26355425,-16.068095,-115.47945)"
       x1="162.63457"
       y1="451.88361"
       x2="162.63457"
       y2="527.73151" />
    <linearGradient
       inkscape:collect="always"
       xlink:href="#linearGradient3033"
       id="linearGradient3889"
       gradientUnits="userSpaceOnUse"
       gradientTransform="matrix(0.26355428,0,0,0.26355428,-16.068096,-115.47946)"
       x1="147.98734"
       y1="584.15649"
       x2="145.46196"
       y2="435.81619" />
    <linearGradient
       inkscape:collect="always"
       xlink:href="#linearGradient3037"
       id="linearGradient3891"
       gradientUnits="userSpaceOnUse"
       gradientTransform="matrix(0.26355425,0,0,0.26355425,-16.068095,-115.47945)"
       x1="187.68785"
       y1="551.68976"
       x2="85.272011"
       y2="451.17957" />
    <linearGradient
       inkscape:collect="always"
       xlink:href="#linearGradient3076"
       id="linearGradient3915"
       gradientUnits="userSpaceOnUse"
       gradientTransform="matrix(0.49448181,0,0,0.49448181,0.04097253,989.48764)"
       x1="42"
       y1="-2.3878183"
       x2="40.25"
       y2="83.862183" />
    <linearGradient
       inkscape:collect="always"
       xlink:href="#linearGradient3076"
       id="linearGradient3918"
       gradientUnits="userSpaceOnUse"
       gradientTransform="matrix(0.35827812,0,0,0.35827812,-21.028584,833.27385)"
       x1="162.63457"
       y1="451.88361"
       x2="162.63457"
       y2="527.73151" />
    <linearGradient
       inkscape:collect="always"
       xlink:href="#linearGradient3033"
       id="linearGradient3921"
       gradientUnits="userSpaceOnUse"
       gradientTransform="matrix(0.35827817,0,0,0.35827817,-21.028585,833.27384)"
       x1="147.98734"
       y1="584.15649"
       x2="145.46196"
       y2="435.81619" />
    <linearGradient
       inkscape:collect="always"
       xlink:href="#linearGradient3037"
       id="linearGradient3924"
       gradientUnits="userSpaceOnUse"
       gradientTransform="matrix(0.35827812,0,0,0.35827812,-21.028584,833.27385)"
       x1="187.68785"
       y1="551.68976"
       x2="85.272011"
       y2="451.17957" />
    <linearGradient
       inkscape:collect="always"
       xlink:href="#linearGradient3037"
       id="linearGradient3927"
       gradientUnits="userSpaceOnUse"
       gradientTransform="matrix(0.35827812,0,0,0.35827812,-21.028584,833.27385)"
       x1="222.10353"
       y1="598.90796"
       x2="144.0524"
       y2="448.27444" />
    <linearGradient
       inkscape:collect="always"
       xlink:href="#linearGradient3930"
       id="linearGradient3936"
       x1="39.454529"
       y1="1065.209"
       x2="37.512707"
       y2="991.45898"
       gradientUnits="userSpaceOnUse" />
  </defs>
  <sodipodi:namedview
     inkscape:current-layer="683d3690-e1ab-45db-97b8-9484a1649262"
     inkscape:window-maximized="1"
     inkscape:window-y="-11"
     inkscape:window-x="-11"
     inkscape:cy="326.21299"
     inkscape:cx="488.31864"
     inkscape:zoom="1.5327065"
     showgrid="false"
     id="namedview15"
     inkscape:window-height="974"
     inkscape:window-width="1920"
     inkscape:pageshadow="2"
     inkscape:pageopacity="0"
     guidetolerance="10"
     gridtolerance="10"
     objecttolerance="10"
     borderopacity="1"
     bordercolor="#666666"
     pagecolor="#ffffff" />
  <title
     id="title2">happy birthday</title>
  <polygon
     id="polygon6"
     fill="#f55f44"
     points="324.76 390.14 298.28 390.14 302.92 374.26 318.8 374.26 324.76 390.14" />
  <polygon
     id="polygon10"
     fill="#535461"
     points="318.8 374.92 302.92 374.92 293.65 369.63 328.07 369.63 318.8 374.92" />
  <path
     id="path12"
     opacity="0.1"
     fill="#fff"
     transform="translate(-180.4 -86.46)"
     d="M451.55,223.78s-46.33,25.15-52.95,75.45" />
  <g
     inkscape:label="Layer 1"
     id="layer1"
     transform="matrix(5.0767761,0,0,6.3536254,125.89889,-6199.7303)">
    <path
       style="color:#000000;font-style:normal;font-variant:normal;font-weight:normal;font-stretch:normal;font-size:medium;line-height:normal;font-family:Sans;-inkscape-font-specification:Sans;text-indent:0;text-align:start;text-decoration:none;text-decoration-line:none;letter-spacing:normal;word-spacing:normal;text-transform:none;writing-mode:lr-tb;direction:ltr;baseline-shift:baseline;text-anchor:start;display:inline;overflow:visible;visibility:visible;opacity:0.686099;fill:#000000;fill-opacity:1;fill-rule:evenodd;stroke:none;stroke-width:10;marker:none;filter:url(#filter3881);enable-background:accumulate"
       d="m 8.84375,2.59375 c -3.562585,0 -6.46875,2.907468 -6.46875,6.46875 0,0.19706 0.01177,0.407787 0.03125,0.59375 0.1627453,1.542507 0.950228,2.737293 1.8125,3.9375 0.00328,0.0049 0.027928,-0.0049 0.03125,0 0.1367313,0.201113 0.2994538,0.407202 0.59375,0.75 0.3014545,0.351136 0.696884,0.794229 1.15625,1.3125 0.918733,1.036541 2.096287,2.348188 3.25,3.625 2.307425,2.55362 4.53125,5 4.53125,5 L 14.3125,24.875 h 0.03125 L 14.90625,24.28125 24.25,13.84375 24.3125,13.8125 24.34375,13.75 c 0.705005,-1.091868 1.627343,-2.316197 1.8125,-3.9375 0.02078,-0.183169 0.03125,-0.369275 0.03125,-0.5625 0,-1.1094648 -0.287979,-2.1781955 -0.78125,-3.09375 -0.0043,-0.00782 0.0043,-0.023447 0,-0.03125 -1.102796,-2.02665 -3.256765,-3.40625 -5.71875,-3.40625 -1.67905,0 -3.194681,0.6645844 -4.34375,1.71875 C 15.15236,4.6131465 14.982168,4.8028956 14.8125,5 14.642761,5.1971323 14.458452,5.4086709 14.3125,5.625 13.16487,3.8139929 11.13888,2.59375 8.84375,2.59375 Z"
       id="path3086"
       inkscape:connector-curvature="0"
       transform="matrix(2.4022225,0,0,2.4022225,-1.531794,988.19318)" />
    <path
       style="color:#000000;font-style:normal;font-variant:normal;font-weight:normal;font-stretch:normal;font-size:medium;line-height:normal;font-family:Sans;-inkscape-font-specification:Sans;text-indent:0;text-align:start;text-decoration:none;text-decoration-line:none;letter-spacing:normal;word-spacing:normal;text-transform:none;writing-mode:lr-tb;direction:ltr;baseline-shift:baseline;text-anchor:start;display:inline;overflow:visible;visibility:visible;fill:url(#linearGradient3927);fill-opacity:1;fill-rule:evenodd;stroke:none;stroke-width:10;marker:none;enable-background:accumulate"
       d="m 32.585238,1000.1815 v 46.2357 l 0.04958,0.054 1.323566,-1.4673 22.490761,-25.0338 0.09914,-0.114 0.0694,-0.1091 c 1.886617,-2.9218 4.476342,-6.2936 4.476342,-10.8711 0,-8.6025 -7.012618,-15.62009 -15.615142,-15.62009 -5.377936,0 -10.088773,2.76783 -12.893644,6.92519 z"
       id="path3047"
       inkscape:connector-curvature="0" />
    <path
       style="color:#000000;font-style:normal;font-variant:normal;font-weight:normal;font-stretch:normal;font-size:medium;line-height:normal;font-family:Sans;-inkscape-font-specification:Sans;text-indent:0;text-align:start;text-decoration:none;text-decoration-line:none;letter-spacing:normal;word-spacing:normal;text-transform:none;writing-mode:lr-tb;direction:ltr;baseline-shift:baseline;text-anchor:start;display:inline;overflow:visible;visibility:visible;fill:url(#linearGradient3924);fill-opacity:1;fill-rule:evenodd;stroke:none;stroke-width:10;marker:none;enable-background:accumulate"
       d="m 19.389202,992.95394 c -8.558121,0 -15.5159954,6.98579 -15.5159954,15.54076 0,4.4031 2.1343759,7.5844 4.4565119,10.8166 0.00788,0.012 0.021764,0.033 0.029744,0.045 0.328459,0.4831 0.7504478,0.9562 1.4574127,1.7796 0.7241608,0.8435 1.6725248,1.9227 2.7760238,3.1677 2.207001,2.49 5.021225,5.6227 7.7927,8.6899 5.542948,6.1344 10.915727,12.0212 10.915727,12.0212 l 1.283912,1.4029 v -46.2357 c -0.0197,0.029 -0.04485,0.055 -0.06445,0.084 -2.751293,-4.3791 -7.596364,-7.31187 -13.131593,-7.31187 z"
       id="path3006"
       inkscape:connector-curvature="0" />
    <path
       style="color:#000000;font-style:normal;font-variant:normal;font-weight:normal;font-stretch:normal;font-size:medium;line-height:normal;font-family:Sans;-inkscape-font-specification:Sans;text-indent:0;text-align:start;text-decoration:none;text-decoration-line:none;letter-spacing:normal;word-spacing:normal;text-transform:none;writing-mode:lr-tb;direction:ltr;baseline-shift:baseline;text-anchor:start;display:inline;overflow:visible;visibility:visible;fill:url(#linearGradient3921);fill-opacity:1;fill-rule:evenodd;stroke:url(#linearGradient3936);stroke-width:0.5;marker:none;enable-background:accumulate"
       d="m 19.389669,996.53672 c 5.325202,0 9.82102,3.47738 11.375331,8.26278 l 1.623449,5.0047 1.768998,-4.9599 c 1.657044,-4.6582 6.076057,-8.00528 11.319355,-8.00528 6.663294,0 12.035903,5.37258 12.035903,12.03588 0,3.1407 -1.858465,5.7801 -3.806704,8.789 l -21.093629,23.4673 c -1.084268,-1.1881 -4.714293,-5.1588 -9.572742,-10.5357 -2.767374,-3.0626 -5.577332,-6.1918 -7.77016,-8.6658 -1.096415,-1.237 -2.040625,-2.3055 -2.743066,-3.1238 -0.702441,-0.8182 -1.22449,-1.4952 -1.220384,-1.489 l -0.02234,-0.022 -0.0113,-0.034 c -2.2960542,-3.1941 -3.8178502,-5.4799 -3.8178502,-8.7667 0,-6.6217 5.3165172,-11.9575 11.9351422,-11.9575 z"
       id="path3049"
       inkscape:connector-curvature="0" />
    <path
       style="color:#000000;font-style:normal;font-variant:normal;font-weight:normal;font-stretch:normal;font-size:medium;line-height:normal;font-family:Sans;-inkscape-font-specification:Sans;text-indent:0;text-align:start;text-decoration:none;text-decoration-line:none;letter-spacing:normal;word-spacing:normal;text-transform:none;writing-mode:lr-tb;direction:ltr;baseline-shift:baseline;text-anchor:start;display:inline;overflow:visible;visibility:visible;opacity:0.5;fill:url(#linearGradient3918);fill-opacity:1;fill-rule:evenodd;stroke:none;stroke-width:10;marker:none;enable-background:accumulate"
       d="m 19.389669,996.53672 c -6.618626,0 -11.9351414,5.33578 -11.9351414,11.95758 0,3.2867 1.5217964,5.5725 3.8179014,8.7666 l 0.0113,0.034 0.02234,0.022 c -0.0041,-0.01 0.517943,0.6709 1.220384,1.4891 0.702442,0.8182 1.646654,1.8867 2.743066,3.1237 0.13412,0.1513 0.309273,0.3478 0.44785,0.5038 8.099166,-6.0957 19.687928,-9.9086 32.558523,-9.9086 2.796405,0 5.531621,0.1817 8.184416,0.5262 0.635127,-1.3423 1.052445,-2.7032 1.052445,-4.1761 0,-6.6634 -5.372609,-12.03595 -12.03591,-12.03595 -5.24329,0 -9.662304,3.34715 -11.319347,8.00525 l -1.768999,4.9599 -1.623447,-5.0047 c -1.554363,-4.7853 -6.050182,-8.26269 -11.375384,-8.26269 z"
       id="path3018"
       inkscape:connector-curvature="0" />
    <path
       style="color:#000000;font-style:normal;font-variant:normal;font-weight:normal;font-stretch:normal;font-size:medium;line-height:normal;font-family:Sans;-inkscape-font-specification:Sans;text-indent:0;text-align:start;text-decoration:none;text-decoration-line:none;letter-spacing:normal;word-spacing:normal;text-transform:none;writing-mode:lr-tb;direction:ltr;baseline-shift:baseline;text-anchor:start;display:inline;overflow:visible;visibility:visible;opacity:0.42;fill:url(#linearGradient3915);fill-opacity:1;fill-rule:evenodd;stroke:none;stroke-width:10;marker:none;enable-background:accumulate"
       d="m 19.387574,992.94901 c -8.558124,0 -15.5143674,6.99028 -15.5143674,15.54529 0,0.4734 0.030467,0.9285 0.077263,1.3753 0.795576,-7.8171 7.4138634,-13.9537 15.4371044,-13.9537 5.535227,0 10.383384,2.92998 13.134672,7.3091 0.0197,-0.029 0.04203,-0.048 0.06181,-0.077 2.804874,-4.15736 7.509499,-6.92274 12.887434,-6.92274 8.059692,0 14.735516,6.16314 15.545269,14.01544 0.04992,-0.44 0.07726,-0.8956 0.07726,-1.3598 0,-8.6025 -7.020009,-15.62253 -15.622534,-15.62253 -5.377935,0 -10.08256,2.76538 -12.887433,6.92273 -0.0197,0.029 -0.04224,0.048 -0.06181,0.077 -2.751288,-4.37911 -7.599445,-7.30909 -13.134672,-7.30909 z"
       id="path3071"
       inkscape:connector-curvature="0" />
  </g>
</svg>
